<?xml version="1.0" standalone="no"?><!DOCTYPE svg PUBLIC "-//W3C//DTD SVG 1.1//EN" "http://www.w3.org/Graphics/SVG/1.1/DTD/svg11.dtd"><svg t="1699166959028" class="icon" viewBox="0 0 1024 1024" version="1.1" xmlns="http://www.w3.org/2000/svg" p-id="11172" xmlns:xlink="http://www.w3.org/1999/xlink" width="200" height="200"><path d="M397.9 579.094l23.667-9.59-41.142-41.141-13.069 32.27c-46.23-25.586-104.39-47.6-175.617-57.04 0 0-44.788 47.563-52.992 73.413 0 0 263.729 29.688 371.785 242.893l0.022-133.34c0 0.002-35.12-56.447-112.653-107.465z" fill="#1296db" p-id="11173"></path><path d="M494.692 806.661s-177.135-229.049-377.94-185.155c0 0-22.318 57.116-20.685 83.062 0 0 235.05-56.488 398.625 102.093z" fill="#1296db" p-id="11174"></path><path d="M67.292 743.524s-6.972 63.63 1.748 89.339c0 0 221.546-120.81 429.53-5.433 0 0-240.806-182.73-431.278-83.906zM882.36 577.006c-8.206-25.853-52.99-73.412-52.99-73.412-223.637 29.63-318.816 182.968-318.816 182.968v133.34C618.628 606.692 882.36 577.006 882.36 577.006z" fill="#1296db" p-id="11175"></path><path d="M529.3 806.661c163.577-158.582 398.63-102.094 398.63-102.094 1.649-25.945-20.686-83.062-20.686-83.062-200.788-43.893-377.943 185.156-377.943 185.156z" fill="#1296db" p-id="11176"></path><path d="M956.705 743.524C766.25 644.7 525.425 827.43 525.425 827.43c207.985-115.378 429.548 5.433 429.548 5.433 8.702-25.709 1.732-89.339 1.732-89.339zM679.657 349.077l-78.769-78.787-174.686 174.65 78.787 78.786zM739.83 288.544c0.873-0.798 1.746-1.577 2.62-2.45 21.713-21.712 21.713-56.945 0-78.654-21.443-21.445-56.088-21.73-77.874-0.874l-0.153-0.153-50.675 50.658 78.786 78.769 47.295-47.296zM491.162 537.554l-78.789-78.768-18.612 56.24 41.159 41.143z" fill="#1296db" p-id="11177"></path></svg>